# xmcd
#
# Track frame offsets:
#	150
#	13824
#	28979
#	42844
#	64972
#	80791
#	103065
#	125491
#	140255
#	154606
#	177312
#	200223
#	218167
#
# Disc length: 3230 seconds
#
# Revision: 0
# Processed by: cddbd v1.5.2PL0 Copyright (c) Steve Scherf et al.
# Submitted via: EZCDAudioConverter 7.1.5.1
#
DISCID=c20c9c0d
DTITLE=Philip Sayce - Influence
DYEAR=1900
DGENRE=Blues
TTITLE0=Out Of My Mind
TTITLE1=Sailin' Shoes
TTITLE2=I'm Going Home
TTITLE3=Fade Into You
TTITLE4=Blues Ain't Nothing But A Good Woman On Your Mind
TTITLE5=Green Power
TTITLE6=Better Days
TTITLE7=Easy On The Eyes
TTITLE8=Evil Woman
TTITLE9=Triumph
TTITLE10=Light 'em Up
TTITLE11=I'd Love To Change The World
TTITLE12=On The Road Again
EXTD=
EXTT0=
EXTT1=
EXTT2=
EXTT3=
EXTT4=
EXTT5=
EXTT6=
EXTT7=
EXTT8=
EXTT9=
EXTT10=
EXTT11=
EXTT12=
PLAYORDER=
